<mxfile host="app.diagrams.net" modified="2022-11-14T16:05:30.940Z" agent="5.0 (Windows NT 10.0; Win64; x64) AppleWebKit/537.36 (KHTML, like Gecko) Chrome/107.0.0.0 Safari/537.36" etag="Z27Q31BrlBhREFfWMCfj" version="20.5.3" type="github">
  <diagram id="kd8ZEUTOdmdTHPbEtRXO" name="第 1 页">
    <mxGraphModel dx="1008" dy="618" grid="1" gridSize="10" guides="1" tooltips="1" connect="1" arrows="1" fold="1" page="1" pageScale="1" pageWidth="827" pageHeight="1169" math="0" shadow="0">
      <root>
        <mxCell id="0" />
        <mxCell id="1" parent="0" />
        <mxCell id="sf_0iyHl3VmnBWYVULOh-3" style="edgeStyle=orthogonalEdgeStyle;rounded=0;orthogonalLoop=1;jettySize=auto;html=1;entryX=0;entryY=0.5;entryDx=0;entryDy=0;sketch=1;" edge="1" parent="1" source="sf_0iyHl3VmnBWYVULOh-1" target="sf_0iyHl3VmnBWYVULOh-2">
          <mxGeometry relative="1" as="geometry" />
        </mxCell>
        <mxCell id="sf_0iyHl3VmnBWYVULOh-1" value="redis实例" style="rounded=0;whiteSpace=wrap;html=1;sketch=1;fillColor=#dae8fc;strokeColor=#6c8ebf;" vertex="1" parent="1">
          <mxGeometry x="100" y="310" width="90" height="50" as="geometry" />
        </mxCell>
        <mxCell id="sf_0iyHl3VmnBWYVULOh-7" value="" style="edgeStyle=orthogonalEdgeStyle;rounded=0;orthogonalLoop=1;jettySize=auto;html=1;sketch=1;" edge="1" parent="1" source="sf_0iyHl3VmnBWYVULOh-2" target="sf_0iyHl3VmnBWYVULOh-6">
          <mxGeometry relative="1" as="geometry" />
        </mxCell>
        <mxCell id="sf_0iyHl3VmnBWYVULOh-2" value="db" style="rounded=0;whiteSpace=wrap;html=1;sketch=1;fillColor=#dae8fc;strokeColor=#6c8ebf;" vertex="1" parent="1">
          <mxGeometry x="250" y="310" width="90" height="50" as="geometry" />
        </mxCell>
        <mxCell id="sf_0iyHl3VmnBWYVULOh-4" value="1" style="text;html=1;align=center;verticalAlign=middle;resizable=0;points=[];autosize=1;strokeColor=none;fillColor=none;" vertex="1" parent="1">
          <mxGeometry x="180" y="295" width="30" height="30" as="geometry" />
        </mxCell>
        <mxCell id="sf_0iyHl3VmnBWYVULOh-5" value="n" style="text;html=1;align=center;verticalAlign=middle;resizable=0;points=[];autosize=1;strokeColor=none;fillColor=none;" vertex="1" parent="1">
          <mxGeometry x="220" y="295" width="30" height="30" as="geometry" />
        </mxCell>
        <mxCell id="sf_0iyHl3VmnBWYVULOh-11" value="" style="edgeStyle=orthogonalEdgeStyle;rounded=0;orthogonalLoop=1;jettySize=auto;html=1;sketch=1;" edge="1" parent="1" source="sf_0iyHl3VmnBWYVULOh-6" target="sf_0iyHl3VmnBWYVULOh-10">
          <mxGeometry relative="1" as="geometry" />
        </mxCell>
        <mxCell id="sf_0iyHl3VmnBWYVULOh-6" value="key" style="rounded=0;whiteSpace=wrap;html=1;sketch=1;fillColor=#dae8fc;strokeColor=#6c8ebf;" vertex="1" parent="1">
          <mxGeometry x="400" y="310" width="90" height="50" as="geometry" />
        </mxCell>
        <mxCell id="sf_0iyHl3VmnBWYVULOh-8" value="1" style="text;html=1;align=center;verticalAlign=middle;resizable=0;points=[];autosize=1;strokeColor=none;fillColor=none;sketch=1;" vertex="1" parent="1">
          <mxGeometry x="330" y="295" width="30" height="30" as="geometry" />
        </mxCell>
        <mxCell id="sf_0iyHl3VmnBWYVULOh-9" value="n" style="text;html=1;align=center;verticalAlign=middle;resizable=0;points=[];autosize=1;strokeColor=none;fillColor=none;sketch=1;" vertex="1" parent="1">
          <mxGeometry x="370" y="295" width="30" height="30" as="geometry" />
        </mxCell>
        <mxCell id="sf_0iyHl3VmnBWYVULOh-10" value="value" style="rounded=0;whiteSpace=wrap;html=1;sketch=1;fillColor=#dae8fc;strokeColor=#6c8ebf;" vertex="1" parent="1">
          <mxGeometry x="570" y="310" width="90" height="50" as="geometry" />
        </mxCell>
        <mxCell id="sf_0iyHl3VmnBWYVULOh-14" value="map" style="rounded=0;whiteSpace=wrap;html=1;sketch=1;fillColor=#dae8fc;strokeColor=#6c8ebf;" vertex="1" parent="1">
          <mxGeometry x="740" y="310" width="90" height="50" as="geometry" />
        </mxCell>
        <mxCell id="sf_0iyHl3VmnBWYVULOh-18" value="set" style="rounded=0;whiteSpace=wrap;html=1;sketch=1;fillColor=#dae8fc;strokeColor=#6c8ebf;" vertex="1" parent="1">
          <mxGeometry x="740" y="400" width="90" height="50" as="geometry" />
        </mxCell>
        <mxCell id="sf_0iyHl3VmnBWYVULOh-19" value="list" style="rounded=0;whiteSpace=wrap;html=1;sketch=1;fillColor=#dae8fc;strokeColor=#6c8ebf;" vertex="1" parent="1">
          <mxGeometry x="740" y="220" width="90" height="50" as="geometry" />
        </mxCell>
        <mxCell id="sf_0iyHl3VmnBWYVULOh-20" value="string" style="rounded=0;whiteSpace=wrap;html=1;sketch=1;fillColor=#dae8fc;strokeColor=#6c8ebf;" vertex="1" parent="1">
          <mxGeometry x="737" y="130" width="90" height="50" as="geometry" />
        </mxCell>
        <mxCell id="sf_0iyHl3VmnBWYVULOh-21" value="sorted-set" style="rounded=0;whiteSpace=wrap;html=1;sketch=1;fillColor=#dae8fc;strokeColor=#6c8ebf;" vertex="1" parent="1">
          <mxGeometry x="740" y="490" width="90" height="50" as="geometry" />
        </mxCell>
        <mxCell id="sf_0iyHl3VmnBWYVULOh-22" value="" style="endArrow=none;html=1;rounded=0;jumpStyle=none;endSize=0;sketch=1;" edge="1" parent="1">
          <mxGeometry width="50" height="50" relative="1" as="geometry">
            <mxPoint x="700" y="520" as="sourcePoint" />
            <mxPoint x="700" y="160" as="targetPoint" />
          </mxGeometry>
        </mxCell>
        <mxCell id="sf_0iyHl3VmnBWYVULOh-23" value="" style="endArrow=classic;html=1;rounded=0;exitX=0;exitY=0.5;exitDx=0;exitDy=0;entryX=0.448;entryY=0.016;entryDx=0;entryDy=0;entryPerimeter=0;sketch=1;" edge="1" parent="1" source="sf_0iyHl3VmnBWYVULOh-20" target="sf_0iyHl3VmnBWYVULOh-10">
          <mxGeometry width="50" height="50" relative="1" as="geometry">
            <mxPoint x="700" y="155" as="sourcePoint" />
            <mxPoint x="590" y="155" as="targetPoint" />
            <Array as="points">
              <mxPoint x="610" y="155" />
            </Array>
          </mxGeometry>
        </mxCell>
        <mxCell id="sf_0iyHl3VmnBWYVULOh-24" value="" style="endArrow=classic;html=1;rounded=0;exitX=0;exitY=0.5;exitDx=0;exitDy=0;sketch=1;" edge="1" parent="1" source="sf_0iyHl3VmnBWYVULOh-19">
          <mxGeometry width="50" height="50" relative="1" as="geometry">
            <mxPoint x="580" y="370" as="sourcePoint" />
            <mxPoint x="700" y="245" as="targetPoint" />
          </mxGeometry>
        </mxCell>
        <mxCell id="sf_0iyHl3VmnBWYVULOh-25" value="" style="endArrow=classic;html=1;rounded=0;exitX=0;exitY=0.5;exitDx=0;exitDy=0;sketch=1;entryX=1;entryY=0.5;entryDx=0;entryDy=0;" edge="1" parent="1" target="sf_0iyHl3VmnBWYVULOh-10">
          <mxGeometry width="50" height="50" relative="1" as="geometry">
            <mxPoint x="739.9999999999998" y="334.65999999999997" as="sourcePoint" />
            <mxPoint x="699.9999999999998" y="334.65999999999997" as="targetPoint" />
          </mxGeometry>
        </mxCell>
        <mxCell id="sf_0iyHl3VmnBWYVULOh-26" value="" style="endArrow=classic;html=1;rounded=0;exitX=0;exitY=0.5;exitDx=0;exitDy=0;sketch=1;" edge="1" parent="1">
          <mxGeometry width="50" height="50" relative="1" as="geometry">
            <mxPoint x="739.9999999999998" y="424.65999999999997" as="sourcePoint" />
            <mxPoint x="699.9999999999998" y="424.65999999999997" as="targetPoint" />
          </mxGeometry>
        </mxCell>
        <mxCell id="sf_0iyHl3VmnBWYVULOh-27" value="" style="endArrow=classic;html=1;rounded=0;exitX=0;exitY=0.5;exitDx=0;exitDy=0;sketch=1;" edge="1" parent="1">
          <mxGeometry width="50" height="50" relative="1" as="geometry">
            <mxPoint x="739.9999999999998" y="514.66" as="sourcePoint" />
            <mxPoint x="699.9999999999998" y="514.66" as="targetPoint" />
          </mxGeometry>
        </mxCell>
      </root>
    </mxGraphModel>
  </diagram>
</mxfile>
